<svg width="126" height="102" viewBox="0 0 126 102" fill="none" xmlns="http://www.w3.org/2000/svg">
<rect width="126" height="102" rx="15" fill="#91C12F"/>
<path fill-rule="evenodd" clip-rule="evenodd" d="M78.8259 4.09301C78.8944 3.99539 79.0288 3.97166 79.1265 4.04002L85.8008 8.7135C85.8985 8.78185 85.9222 8.91639 85.8539 9.014L76.5642 22.2809C81.0804 23.7237 84.1573 25.28 84.1573 25.28C84.1573 25.28 76.6366 38.2164 63.8806 38.2164C51.1247 38.2164 42.0605 26.1595 42.0605 26.1595C42.0605 26.1595 45.2745 24.1083 50.0388 22.3492L39.8493 10.206C39.7728 10.1147 39.7847 9.97861 39.8759 9.90201L46.1176 4.6646C46.209 4.588 46.3451 4.59991 46.4216 4.6912L59.3231 20.0666C60.4278 19.9417 61.5532 19.8718 62.6889 19.8718C64.3213 19.8718 65.9516 19.9959 67.5432 20.2065L78.8259 4.09301ZM81.3496 38.8291C84.7536 36.3979 89.9045 30.0526 89.9045 30.0526C89.9045 30.0526 103.062 40.4789 103.062 62.5865C103.062 84.6939 80.315 97.9995 80.315 97.9995C80.315 97.9995 69.4472 87.0241 66.7792 73.1112C64.1114 59.1983 70.7258 43.7496 70.7258 43.7496C70.7258 43.7496 77.9454 41.2602 81.3496 38.8291V38.8291ZM44.689 38.8291C41.285 36.3979 36.1341 30.0526 36.1341 30.0526C36.1341 30.0526 22.9771 40.4789 22.9771 62.5865C22.9771 84.6939 45.7236 97.9995 45.7236 97.9995C45.7236 97.9995 56.5914 87.0241 59.2594 73.1112C61.9272 59.1983 55.3129 43.7496 55.3129 43.7496C55.3129 43.7496 48.0932 41.2602 44.689 38.8291V38.8291Z" fill="url(#paint0_linear_1423_20357)"/>
<defs>
<linearGradient id="paint0_linear_1423_20357" x1="14.9615" y1="11.0497" x2="89.5875" y2="110.617" gradientUnits="userSpaceOnUse">
<stop stop-color="white"/>
<stop offset="1" stop-color="white" stop-opacity="0"/>
</linearGradient>
</defs>
</svg>
