<svg width="126" height="102" viewBox="0 0 126 102" fill="none" xmlns="http://www.w3.org/2000/svg">
<rect width="126" height="102" rx="15" fill="#5A5465"/>
<g clip-path="url(#clip0_1423_20663)">
<path fill-rule="evenodd" clip-rule="evenodd" d="M58.1141 87.1404C59.9 87.4138 61.7289 87.5555 63.5913 87.5555C83.4198 87.5555 99.494 71.4814 99.494 51.6529C99.494 31.8242 83.4198 15.75 63.5913 15.75C62.261 15.75 60.9474 15.8224 59.6547 15.9634C69.4907 23.4152 75.994 36.3239 75.994 51C75.994 66.4292 68.8061 79.905 58.1141 87.1404ZM62.9384 98C88.8958 98 109.938 76.9574 109.938 51C109.938 25.0426 88.8958 4 62.9384 4C36.981 4 15.9385 25.0426 15.9385 51C15.9385 76.9574 36.981 98 62.9384 98Z" fill="url(#paint0_linear_1423_20663)"/>
</g>
<defs>
<linearGradient id="paint0_linear_1423_20663" x1="6.53011" y1="11.0489" x2="77.066" y2="121.509" gradientUnits="userSpaceOnUse">
<stop stop-color="white"/>
<stop offset="1" stop-color="white" stop-opacity="0"/>
</linearGradient>
<clipPath id="clip0_1423_20663">
<rect width="94" height="94" fill="white" transform="translate(16 4)"/>
</clipPath>
</defs>
</svg>
