<svg width="126" height="102" viewBox="0 0 126 102" fill="none" xmlns="http://www.w3.org/2000/svg">
<rect width="126" height="102" rx="15" fill="#0B6DC3"/>
<path fill-rule="evenodd" clip-rule="evenodd" d="M67.5347 50.7946C68.1717 50.4061 68.7122 49.592 69.1481 48.6873C74.8845 51.0318 78.9156 56.5719 78.9156 63.0327C78.9156 71.6157 71.8014 78.5738 63.0256 78.5738C59.4231 78.5738 56.1006 77.4012 53.4354 75.4251C52.5611 75.0111 51.8418 74.6135 51.2532 74.288C50.3402 73.7833 49.7415 73.4522 49.3666 73.504C48.2707 73.6551 48.5889 74.6634 48.878 75.5794C49.0743 76.2016 49.2573 76.7812 48.9741 77.0202C48.6777 77.2706 47.7179 76.3554 46.5963 75.2862C45.0696 73.8304 43.2432 72.0891 42.3819 72.6121C41.701 73.0257 42.3621 74.1477 43.1714 75.521L43.2314 75.6229C43.5733 76.2034 43.9695 76.7946 44.331 77.334C45.0659 78.4302 45.6578 79.3136 45.3617 79.4631C45.0037 79.6438 42.5094 77.9602 40.4074 75.6229C39.5961 74.7209 38.8103 73.7431 38.08 72.8344V72.8343C36.4814 70.8452 35.1496 69.1883 34.402 69.3845C33.5027 69.6206 34.183 71.4757 35.1827 73.2607C35.6501 74.0955 36.2 74.9456 36.676 75.6816V75.6818C37.4165 76.8263 37.9784 77.6949 37.7747 77.8018C37.4996 77.9455 35.0797 75.5858 33.436 72.6121C32.4598 70.8458 31.64 68.8938 30.9764 67.3136C30.2567 65.5997 29.7206 64.3232 29.3675 64.1947C28.141 63.7484 28.141 66.2491 28.6329 69.8584C28.6971 70.3293 28.7927 70.8232 28.9103 71.326C33.6809 86.7613 48.3355 98 65.6739 98C86.8821 98 104.075 81.185 104.075 60.4426C104.075 40.7004 88.5005 24.5161 68.713 23.0009C68.7379 22.0708 69.2233 20.2266 69.2233 20.2266C69.2233 20.2266 72.7166 11.7747 72.9013 9.96861C72.9134 9.84875 72.9279 9.71849 72.9435 9.57976C73.1611 7.62835 73.5659 4 70.4444 4C68.7774 4 68.0023 5.24011 67.1157 6.65842V6.65844C66.7753 7.20292 66.4184 7.77368 65.9884 8.3106C62.8916 12.1779 57.6841 17.0074 54.7314 19.5803C48.4903 25.0185 42.3671 29.488 38.7958 32.0946L38.7956 32.0948C37.1714 33.2803 36.0751 34.0806 35.7358 34.4112C33.1791 36.9037 24.0119 53.4392 24.0119 53.4392C24.0119 53.4392 21.0473 58.7444 22.101 59.8204C23.1548 60.8963 25.6959 60.6497 25.6959 60.6497C25.6959 60.6497 59.8334 52.8181 62.8897 52.2005C63.7126 52.0342 64.2935 51.9382 64.7394 51.8645C65.9502 51.6646 66.1676 51.6286 67.5347 50.7946ZM43.3981 40.7305C41.5657 42.4723 38.5267 46.6297 38.5267 46.6297C38.5267 46.6297 44.1747 46.9776 47.2854 44.0209C50.3962 41.0639 49.6835 36.0248 49.6835 36.0248C49.6835 36.0248 45.2304 38.9887 43.3981 40.7305Z" fill="url(#paint0_linear_1423_20591)"/>
<defs>
<linearGradient id="paint0_linear_1423_20591" x1="13.6472" y1="11.0489" x2="87.7076" y2="112.47" gradientUnits="userSpaceOnUse">
<stop stop-color="white"/>
<stop offset="1" stop-color="white" stop-opacity="0"/>
</linearGradient>
</defs>
</svg>
