<svg width="126" height="102" viewBox="0 0 126 102" fill="none" xmlns="http://www.w3.org/2000/svg">
<rect width="126" height="102" rx="15" fill="#EC8FE6"/>
<path fill-rule="evenodd" clip-rule="evenodd" d="M34.8599 78.535L49.9369 74.1633L62.9593 97.9738C62.9763 98.0046 63.0206 98.0046 63.0375 97.9738L76.0598 74.1633L91.137 78.535C91.1708 78.5448 91.2022 78.5134 91.1921 78.4796L86.8197 63.7008L109.974 51.0375C110.005 51.0206 110.005 50.9763 109.974 50.9594L86.6289 38.1916L91.1921 22.7679C91.2022 22.7341 91.1708 22.7027 91.137 22.7124L75.7062 27.1868L63.0375 4.02317C63.0206 3.99228 62.9763 3.99228 62.9594 4.02317L50.2907 27.1868L34.8599 22.7124C34.8261 22.7027 34.7947 22.7341 34.8048 22.7679L39.368 38.1916L16.0232 50.9594C15.9923 50.9763 15.9923 51.0206 16.0232 51.0375L39.1771 63.7008L34.8048 78.4796C34.7947 78.5134 34.8261 78.5448 34.8599 78.535ZM46.5596 51.1608L57.2409 57.0026L63.0826 67.6837C63.0995 67.7148 63.144 67.7148 63.1608 67.6837L69.0026 57.0026L79.6837 51.1608C79.7146 51.144 79.7146 51.0995 79.6837 51.0826L69.0026 45.2409L63.1608 34.5597C63.144 34.5287 63.0995 34.5287 63.0826 34.5597L57.2409 45.2409L46.5596 51.0826C46.5287 51.0995 46.5287 51.144 46.5596 51.1608Z" fill="url(#paint0_linear_1423_20407)"/>
<defs>
<linearGradient id="paint0_linear_1423_20407" x1="6.59194" y1="11.0486" x2="77.1255" y2="121.505" gradientUnits="userSpaceOnUse">
<stop stop-color="white"/>
<stop offset="1" stop-color="white" stop-opacity="0"/>
</linearGradient>
</defs>
</svg>
