<svg width="126" height="102" viewBox="0 0 126 102" fill="none" xmlns="http://www.w3.org/2000/svg">
<rect width="126" height="102" rx="15" fill="#CE416B"/>
<path fill-rule="evenodd" clip-rule="evenodd" d="M32.1987 11.8148C33.3363 7.3233 37.4053 4 42.2503 4C45.8845 4 49.0822 5.86985 50.9336 8.7H53.9652C55.8487 6.76705 58.4802 5.56667 61.3922 5.56667C65.6615 5.56667 69.3282 8.14705 70.9177 11.8333H73.4559C75.0464 10.8404 76.9257 10.2667 78.9388 10.2667C83.2082 10.2667 86.8748 12.8471 88.4644 16.5333H95.3666C95.4255 16.5333 95.4808 16.5492 95.5283 16.5769C95.8435 16.5481 96.1628 16.5333 96.4854 16.5333C102.212 16.5333 106.854 21.1755 106.854 26.9019V57.9924L106.854 58.05L106.854 58.1077V58.5554C106.854 58.7451 106.849 58.934 106.838 59.122C106.215 80.6902 86.8206 98 62.9872 98C38.7604 98 19.1206 80.1138 19.1206 58.05C19.1206 47.3999 23.6967 37.7231 31.1558 30.5614C31.1372 40.9442 31.3126 51.6782 32.121 51.4941C34.2857 51.0006 32.5944 18.8416 32.1987 11.8148Z" fill="url(#paint0_linear_1423_20612)"/>
<defs>
<linearGradient id="paint0_linear_1423_20612" x1="10.3394" y1="11.0489" x2="82.8078" y2="116.97" gradientUnits="userSpaceOnUse">
<stop stop-color="white"/>
<stop offset="1" stop-color="white" stop-opacity="0"/>
</linearGradient>
</defs>
</svg>
