<svg width="126" height="102" viewBox="0 0 126 102" fill="none" xmlns="http://www.w3.org/2000/svg">
<rect width="126" height="102" rx="15" fill="#FF9D55"/>
<g clip-path="url(#clip0_1423_20223)">
<path fill-rule="evenodd" clip-rule="evenodd" d="M80.6714 76.5929C81.8328 72.3461 79.5785 63.6157 79.5785 63.6157C79.5785 63.6157 77.9434 70.7279 75.3885 73.3566C73.2089 75.5989 70.5385 77.1541 66.7087 77.5628C69.8399 76.0419 71.9933 72.8707 71.9933 69.2052C71.9933 64.0598 67.7501 59.8886 62.5158 59.8886C57.2816 59.8886 53.0382 64.0598 53.0382 69.2052C53.0382 70.6104 53.3549 71.9432 53.9216 73.138C50.6478 70.5298 50.133 66.3483 50.133 66.3483C50.133 66.3483 46.4773 81.526 56.5503 88.6656C66.6232 95.8052 86.3557 89.6684 86.3557 89.6684C86.3557 89.6684 58.1173 109.537 37.1924 87.9125C19.1673 69.284 32.4878 44.7593 32.4878 44.7593C32.4878 44.7593 31.9125 47.0344 31.9125 49.6754C31.9125 52.3164 33.3444 54.3259 33.3444 54.3259C33.3444 54.3259 37.6157 45.3226 40.9399 41.6612C44.086 38.1961 48.0297 35.3856 51.4361 32.9581C54.0582 31.0895 56.362 29.4478 57.7378 27.9091C65.316 19.4355 60.6694 4.00098 60.6694 4.00098C60.6694 4.00098 69.212 11.532 71.5969 21.2584C72.5061 24.9659 71.9212 29.1844 71.3983 32.9567C70.5493 39.0806 69.8633 44.029 75.9962 43.7079C85.907 43.1889 77.2948 27.9091 77.2948 27.9091C77.2948 27.9091 99.7762 39.7252 98.0967 60.3909C96.417 81.0566 73.5234 85.7547 73.5234 85.7547C73.5234 85.7547 79.5098 80.8396 80.6714 76.5929Z" fill="url(#paint0_linear_1423_20223)"/>
</g>
<defs>
<linearGradient id="paint0_linear_1423_20223" x1="20.699" y1="11.0498" x2="97.4657" y2="101.133" gradientUnits="userSpaceOnUse">
<stop stop-color="white"/>
<stop offset="1" stop-color="white" stop-opacity="0"/>
</linearGradient>
<clipPath id="clip0_1423_20223">
<rect width="94" height="94" fill="white" transform="translate(16 4)"/>
</clipPath>
</defs>
</svg>
