<svg width="126" height="102" viewBox="0 0 126 102" fill="none" xmlns="http://www.w3.org/2000/svg">
<rect width="126" height="102" rx="15" fill="#89AAE3"/>
<path fill-rule="evenodd" clip-rule="evenodd" d="M48.8104 91.7078C62.5805 91.7078 74.3694 84.0547 79.2363 73.2058C79.2958 73.0734 59.6966 78.2992 60.3215 76.4519C60.6006 75.627 72.615 71.238 81.3682 66.1187C86.3992 63.1763 88.716 56.9475 88.716 56.9475C88.716 56.9475 80.24 61.0627 75.9551 62.1066C67.3203 64.2106 59.7194 63.9841 59.7194 63.7649C59.7194 63.2908 72.3405 60.8927 89.8825 50.203C98.1338 45.1749 100.375 36.514 100.375 36.514C100.375 36.514 91.3034 41.9176 85.8194 43.7015C72.8144 47.9321 60.9465 49.207 60.9465 48.6345C60.9465 47.4089 71.3906 44.5369 82.4639 39.1714C88.2214 36.3817 93.2076 32.737 98.9858 28.6838C108.441 22.0522 110 10.2412 110 10.2412C110 10.2412 100.675 16.2558 96.124 18.2531C77.3462 26.495 60.7655 30.8182 48.8104 31.7542C30.7639 33.1671 16 45.7585 16 62.1066C16 78.4549 30.6897 91.7078 48.8104 91.7078Z" fill="url(#paint0_linear_1423_20739)"/>
<defs>
<linearGradient id="paint0_linear_1423_20739" x1="22" y1="15.9996" x2="104" y2="90.4996" gradientUnits="userSpaceOnUse">
<stop stop-color="white"/>
<stop offset="1" stop-color="white" stop-opacity="0"/>
</linearGradient>
</defs>
</svg>
