<svg width="126" height="102" viewBox="0 0 126 102" fill="none" xmlns="http://www.w3.org/2000/svg">
<rect width="126" height="102" rx="15" fill="#5269AD"/>
<g clip-path="url(#clip0_1423_20684)">
<path fill-rule="evenodd" clip-rule="evenodd" d="M83.7373 97.6745C75.2584 98.1085 65.5512 98.1085 62.2524 97.6745C36.5203 94.2892 16 75.4754 16 50.0453C16 24.6152 37.0426 4 63 4C88.9574 4 110 24.6152 110 50.0453C110 61.8726 105.448 72.6584 97.9673 80.8132C95.9358 83.0276 98.7231 84.5808 101.555 86.1589C104.332 87.7068 107.153 89.2786 105.514 91.5214C103.708 93.9927 93.9157 97.1535 83.7373 97.6745ZM56.3906 44.2897C56.3906 48.263 53.1026 51.4841 49.0469 51.4841C44.9911 51.4841 41.7031 48.263 41.7031 44.2897C41.7031 41.6248 43.182 39.2985 45.3794 38.055C45.5059 41.5196 48.3545 44.2895 51.8502 44.2895H56.3906V44.2897ZM79.1519 38.055C79.0254 41.5196 76.1767 44.2895 72.6811 44.2895H68.1406V44.2897C68.1406 48.263 71.4286 51.4841 75.4844 51.4841C79.5401 51.4841 82.8281 48.263 82.8281 44.2897C82.8281 41.6248 81.3493 39.2985 79.1519 38.055Z" fill="url(#paint0_linear_1423_20684)"/>
</g>
<defs>
<linearGradient id="paint0_linear_1423_20684" x1="6.59163" y1="11.0489" x2="77.1275" y2="121.509" gradientUnits="userSpaceOnUse">
<stop stop-color="white"/>
<stop offset="1" stop-color="white" stop-opacity="0"/>
</linearGradient>
<clipPath id="clip0_1423_20684">
<rect width="94" height="94" fill="white" transform="translate(16 4)"/>
</clipPath>
</defs>
</svg>
