<svg width="126" height="102" viewBox="0 0 126 102" fill="none" xmlns="http://www.w3.org/2000/svg">
<rect width="126" height="102" rx="15" fill="#63BC5A"/>
<path fill-rule="evenodd" clip-rule="evenodd" d="M33.8862 84.9028C33.5636 84.5993 33.2445 84.29 32.9291 83.9746C16.28 67.3255 16.28 40.3319 32.9291 23.6829C49.5781 7.03373 102.629 5.91992 102.629 5.91992C102.629 5.91992 109.87 67.3255 93.2209 83.9746C78.4343 98.7612 55.4884 100.415 38.8763 88.9373L52.2617 72.511L73.6596 67.8912L56.1927 66.145L67.2931 54.8426L79.9288 52.0746L69.9372 49.1156L79.9288 31.0911L65.7168 47.0322L60.2286 39.2876L62.1606 52.0746L52.2617 63.2338L47.6732 49.1154V67.8912L33.8862 84.9028Z" fill="url(#paint0_linear_1423_20194)"/>
<defs>
<linearGradient id="paint0_linear_1423_20194" x1="12.0594" y1="12.7094" x2="82.0855" y2="114.15" gradientUnits="userSpaceOnUse">
<stop stop-color="white"/>
<stop offset="1" stop-color="white" stop-opacity="0"/>
</linearGradient>
</defs>
</svg>
