<svg width="126" height="102" viewBox="0 0 126 102" fill="none" xmlns="http://www.w3.org/2000/svg">
<rect width="126" height="102" rx="15" fill="#D97845"/>
<path fill-rule="evenodd" clip-rule="evenodd" d="M36.7028 84.7351C36.6773 84.7351 36.6594 84.71 36.6679 84.6859L60.6664 16.8752C60.6717 16.8604 60.6856 16.8506 60.7012 16.8506H86.3203C86.3359 16.8506 86.35 16.8605 86.3552 16.8754L109.998 84.6861C110.006 84.7102 109.988 84.7351 109.963 84.7351H37.4239H36.7028ZM16.037 85.0004C16.0112 85.0004 15.9933 84.9747 16.0024 84.9507L33.8733 37.2398C33.8787 37.2253 33.8925 37.2157 33.9079 37.2157H49.4357C49.4614 37.2157 49.4792 37.2412 49.4704 37.2653L32.1897 84.9762C32.1844 84.9907 32.1706 85.0004 32.155 85.0004H16.037Z" fill="url(#paint0_linear_1423_20428)"/>
<defs>
<linearGradient id="paint0_linear_1423_20428" x1="6.59166" y1="21.961" x2="49.5728" y2="114.801" gradientUnits="userSpaceOnUse">
<stop stop-color="white"/>
<stop offset="1" stop-color="white" stop-opacity="0"/>
</linearGradient>
</defs>
</svg>
