<svg width="126" height="102" viewBox="0 0 126 102" fill="none" xmlns="http://www.w3.org/2000/svg">
<rect width="126" height="102" rx="15" fill="#73CEC0"/>
<mask id="path-2-inside-1_1423_20713" fill="white">
<path d="M40.4023 37.3928L60.9517 47.6674V24.5494L40.4023 11.7061V37.3928Z"/>
<path d="M63.5204 24.5494V47.6674L84.0697 37.3928V11.7061L63.5204 24.5494Z"/>
<path d="M84.0697 63.0795L63.5204 52.8048V78.4915L84.0697 88.7662V63.0795Z"/>
<path d="M60.9517 78.4915V52.8048L40.4023 63.0795V88.7662L60.9517 78.4915Z"/>
<path d="M84.0697 39.9614L63.5204 50.2361L84.0697 60.5108L107.188 50.2361L84.0697 39.9614Z"/>
<path d="M40.4023 39.9614L60.9517 50.2361L37.8337 60.5108L17.2843 50.2361L40.4023 39.9614Z"/>
</mask>
<path d="M60.9517 47.6674L44.8693 79.8323L96.9131 105.854V47.6674H60.9517ZM40.4023 37.3928H4.44095V59.6181L24.3199 69.5576L40.4023 37.3928ZM40.4023 11.7061L59.4618 -18.7891L4.44095 -53.1772V11.7061H40.4023ZM60.9517 24.5494H96.9131V4.6179L80.0112 -5.94578L60.9517 24.5494ZM63.5204 47.6674H27.559V105.854L79.6028 79.8323L63.5204 47.6674ZM63.5204 24.5494L44.4609 -5.94578L27.559 4.6179V24.5494H63.5204ZM84.0697 11.7061H120.031V-53.1772L65.0102 -18.7891L84.0697 11.7061ZM84.0697 37.3928L100.152 69.5576L120.031 59.6181V37.3928H84.0697ZM63.5204 52.8048L79.6028 20.6399L27.559 -5.38196V52.8048H63.5204ZM84.0697 63.0795H120.031V40.8541L100.152 30.9146L84.0697 63.0795ZM84.0697 88.7662L67.9873 120.931L120.031 146.953V88.7662H84.0697ZM63.5204 78.4915H27.559V100.717L47.4379 110.656L63.5204 78.4915ZM60.9517 52.8048H96.9131V-5.38197L44.8693 20.6399L60.9517 52.8048ZM60.9517 78.4915L77.0341 110.656L96.9131 100.717V78.4915H60.9517ZM40.4023 88.7662H4.44095V146.953L56.4847 120.931L40.4023 88.7662ZM40.4023 63.0795L24.3199 30.9146L4.44095 40.8541V63.0795H40.4023ZM63.5204 50.2361L47.4379 18.0713L-16.8917 50.2361L47.4379 82.4009L63.5204 50.2361ZM84.0697 39.9614L98.675 7.0995L83.1667 0.206903L67.9873 7.79659L84.0697 39.9614ZM107.188 50.2361L121.793 83.098L195.732 50.2361L121.793 17.3742L107.188 50.2361ZM84.0697 60.5108L67.9873 92.6756L83.1667 100.265L98.675 93.3727L84.0697 60.5108ZM60.9517 50.2361L75.557 83.098L145.191 52.1496L77.0341 18.0713L60.9517 50.2361ZM40.4023 39.9614L56.4847 7.79659L41.3054 0.206903L25.797 7.0995L40.4023 39.9614ZM17.2843 50.2361L2.679 17.3742L-66.9549 48.3226L1.20189 82.4009L17.2843 50.2361ZM37.8337 60.5108L21.7512 92.6756L36.9306 100.265L52.439 93.3727L37.8337 60.5108ZM60.9517 47.6674L77.0341 15.5026L56.4847 5.22792L40.4023 37.3928L24.3199 69.5576L44.8693 79.8323L60.9517 47.6674ZM40.4023 37.3928H76.3637V11.7061H40.4023H4.44095V37.3928H40.4023ZM40.4023 11.7061L21.3428 42.2012L41.8922 55.0446L60.9517 24.5494L80.0112 -5.94578L59.4618 -18.7891L40.4023 11.7061ZM60.9517 24.5494H24.9903V47.6674H60.9517H96.9131V24.5494H60.9517ZM63.5204 47.6674H99.4817V24.5494H63.5204H27.559V47.6674H63.5204ZM63.5204 24.5494L82.5798 55.0446L103.129 42.2012L84.0697 11.7061L65.0102 -18.7891L44.4609 -5.94578L63.5204 24.5494ZM84.0697 11.7061H48.1083V37.3928H84.0697H120.031V11.7061H84.0697ZM84.0697 37.3928L67.9873 5.22792L47.4379 15.5026L63.5204 47.6674L79.6028 79.8323L100.152 69.5576L84.0697 37.3928ZM63.5204 52.8048L47.4379 84.9696L67.9873 95.2443L84.0697 63.0795L100.152 30.9146L79.6028 20.6399L63.5204 52.8048ZM84.0697 63.0795H48.1083V88.7662H84.0697H120.031V63.0795H84.0697ZM84.0697 88.7662L100.152 56.6013L79.6028 46.3266L63.5204 78.4915L47.4379 110.656L67.9873 120.931L84.0697 88.7662ZM63.5204 78.4915H99.4817V52.8048H63.5204H27.559V78.4915H63.5204ZM60.9517 52.8048H24.9903V78.4915H60.9517H96.9131V52.8048H60.9517ZM60.9517 78.4915L44.8693 46.3266L24.3199 56.6013L40.4023 88.7662L56.4847 120.931L77.0341 110.656L60.9517 78.4915ZM40.4023 88.7662H76.3637V63.0795H40.4023H4.44095V88.7662H40.4023ZM40.4023 63.0795L56.4847 95.2443L77.0341 84.9696L60.9517 52.8048L44.8693 20.6399L24.3199 30.9146L40.4023 63.0795ZM63.5204 50.2361L79.6028 82.4009L100.152 72.1263L84.0697 39.9614L67.9873 7.79659L47.4379 18.0713L63.5204 50.2361ZM84.0697 39.9614L69.4644 72.8233L92.5824 83.098L107.188 50.2361L121.793 17.3742L98.675 7.0995L84.0697 39.9614ZM107.188 50.2361L92.5825 17.3742L69.4644 27.6489L84.0697 60.5108L98.675 93.3727L121.793 83.098L107.188 50.2361ZM84.0697 60.5108L100.152 28.3459L79.6028 18.0713L63.5204 50.2361L47.4379 82.4009L67.9873 92.6756L84.0697 60.5108ZM60.9517 50.2361L77.0341 18.0713L56.4847 7.79659L40.4023 39.9614L24.3199 72.1263L44.8693 82.4009L60.9517 50.2361ZM40.4023 39.9614L25.797 7.0995L2.679 17.3742L17.2843 50.2361L31.8896 83.098L55.0076 72.8233L40.4023 39.9614ZM17.2843 50.2361L1.20189 82.4009L21.7512 92.6756L37.8337 60.5108L53.9161 28.3459L33.3667 18.0713L17.2843 50.2361ZM37.8337 60.5108L52.439 93.3727L75.557 83.098L60.9517 50.2361L46.3464 17.3742L23.2284 27.6489L37.8337 60.5108Z" fill="url(#paint0_linear_1423_20713)" mask="url(#path-2-inside-1_1423_20713)"/>
<defs>
<linearGradient id="paint0_linear_1423_20713" x1="16.9999" y1="12" x2="107" y2="89" gradientUnits="userSpaceOnUse">
<stop stop-color="white"/>
<stop offset="1" stop-color="white" stop-opacity="0"/>
</linearGradient>
</defs>
</svg>
