<svg width="126" height="102" viewBox="0 0 126 102" fill="none" xmlns="http://www.w3.org/2000/svg">
<rect width="126" height="102" rx="15" fill="#B567CE"/>
<g clip-path="url(#clip0_1423_20499)">
<path fill-rule="evenodd" clip-rule="evenodd" d="M94.5453 76.2348C104.038 68.6448 110 57.6784 110 45.483C110 22.5725 88.9574 4 63 4C37.0426 4 16 22.5725 16 45.483C16 57.2382 21.5397 67.8513 30.4406 75.3998C29.9012 77.2624 29.6053 79.2883 29.6053 81.4068C29.6053 90.5709 35.1428 98 41.9737 98C46.4123 98 50.3049 94.8633 52.4869 90.1521C54.6689 94.8633 58.5614 98 63 98C67.046 98 70.6382 95.3937 72.8948 91.3644C75.1513 95.3937 78.7435 98 82.7894 98C89.6204 98 95.1579 90.5709 95.1579 81.4068C95.1579 79.601 94.9428 77.8623 94.5453 76.2348ZM90.2106 46.3057C90.2106 57.9371 77.751 67.3663 62.3817 67.3663C47.0121 67.3663 34.5527 57.9371 34.5527 46.3057C34.5527 34.6743 47.0121 25.2451 62.3817 25.2451C77.751 25.2451 90.2106 34.6743 90.2106 46.3057Z" fill="url(#paint0_linear_1423_20499)"/>
</g>
<defs>
<linearGradient id="paint0_linear_1423_20499" x1="6.59163" y1="11.0489" x2="77.1275" y2="121.509" gradientUnits="userSpaceOnUse">
<stop stop-color="white"/>
<stop offset="1" stop-color="white" stop-opacity="0"/>
</linearGradient>
<clipPath id="clip0_1423_20499">
<rect width="94" height="94" fill="white" transform="translate(16 4)"/>
</clipPath>
</defs>
</svg>
