<svg width="126" height="102" viewBox="0 0 126 102" fill="none" xmlns="http://www.w3.org/2000/svg">
<rect width="126" height="102" rx="15" fill="#FA7179"/>
<g clip-path="url(#clip0_1423_20520)">
<path fill-rule="evenodd" clip-rule="evenodd" d="M99.7055 82.0602C99.7055 82.0602 87.8527 91.5665 64.266 87.6326C46.3711 84.6479 36.8268 64.9215 36.8268 54.3182C36.8268 29.1787 55.4333 23.4578 68.0126 23.4578C80.5917 23.4578 88.7978 35.7218 88.7978 45.2173C88.7978 54.7128 82.0819 63.0182 71.6305 63.0182C61.1792 63.0182 58.0838 55.6809 58.0838 48.9351C58.0838 42.1895 63.5415 39.8128 68.519 39.8128C73.4964 39.8128 75.2007 44.0623 75.2007 47.7145C75.2007 51.367 72.3669 52.6749 70.0033 52.6749C67.6397 52.6749 67.406 51.4824 66.5014 50.2292C65.5967 48.9762 67.6551 44.2329 64.266 44.2329C60.8769 44.2329 60.2451 49.6858 60.2451 49.6858C60.2451 49.6858 61.4807 60.2118 71.6305 60.0302C81.7805 59.8484 86.5956 52.0016 85.1962 44.2329C83.7969 36.4639 76.2572 28.2086 63.0249 29.8768C49.7926 31.5449 44.39 44.9149 46.7714 59.2029C49.1527 73.4911 66.2697 81.7697 79.7281 78.7913C93.1866 75.8128 106.591 66.0695 106.591 41.3664C106.591 16.6631 85.1962 1.81422 59.685 4.2614C34.1737 6.70858 18.3374 29.0122 19.3511 55.8105C20.3648 82.6087 45.7932 97.2039 67.2955 97.9561C88.7978 98.7084 101.98 86.2613 101.98 86.2613C101.98 86.2613 104.944 83.6178 103.782 81.5534C102.62 79.4891 99.7055 82.0602 99.7055 82.0602Z" fill="url(#paint0_linear_1423_20520)"/>
</g>
<defs>
<linearGradient id="paint0_linear_1423_20520" x1="10.5688" y1="11.0471" x2="83.1601" y2="116.618" gradientUnits="userSpaceOnUse">
<stop stop-color="white"/>
<stop offset="1" stop-color="white" stop-opacity="0"/>
</linearGradient>
<clipPath id="clip0_1423_20520">
<rect width="94" height="94" fill="white" transform="translate(16 4)"/>
</clipPath>
</defs>
</svg>
