<svg width="126" height="102" viewBox="0 0 126 102" fill="none" xmlns="http://www.w3.org/2000/svg">
<rect width="126" height="102" rx="15" fill="#C5B78C"/>
<g clip-path="url(#clip0_1423_20449)">
<path fill-rule="evenodd" clip-rule="evenodd" d="M88.5439 48.9388C88.5386 48.9314 88.5364 48.9223 88.5378 48.9133L94.5347 13.9449C94.5375 13.9288 94.5516 13.917 94.5678 13.917H96.4658C96.4805 13.917 96.4933 13.9265 96.4977 13.9404L110.008 56.7184C110.013 56.7316 110.008 56.7463 109.997 56.7549L100.035 64.5325C100.021 64.5441 99.999 64.5411 99.9878 64.5259L88.5439 48.9388ZM15.8154 72.1203C15.8154 72.1348 15.8248 72.1476 15.8385 72.1522L36.3733 78.8664C36.3833 78.8697 36.3943 78.8681 36.4029 78.8622L82.303 47.1739C82.3107 47.1686 82.3158 47.1603 82.3171 47.1511L87.2393 14.1242C87.2424 14.1039 87.2266 14.0857 87.2062 14.0857H46.5501C46.54 14.0857 46.5307 14.0901 46.5242 14.0978L15.8231 51.134C15.8182 51.1401 15.8154 51.1476 15.8154 51.1555V72.1203ZM44.9303 80.5771L67.3642 87.9258C67.3743 87.9291 67.3854 87.9275 67.3941 87.9213L94.1031 68.7627C94.118 68.7522 94.1217 68.7318 94.1116 68.7168L84.0991 53.8172C84.0886 53.8016 84.0677 53.7976 84.0523 53.8082L44.9303 80.5771Z" fill="url(#paint0_linear_1423_20449)"/>
</g>
<defs>
<linearGradient id="paint0_linear_1423_20449" x1="6.38759" y1="19.4669" x2="55.4626" y2="117.278" gradientUnits="userSpaceOnUse">
<stop stop-color="white"/>
<stop offset="1" stop-color="white" stop-opacity="0"/>
</linearGradient>
<clipPath id="clip0_1423_20449">
<rect width="94" height="94" fill="white" transform="translate(16 4)"/>
</clipPath>
</defs>
</svg>
