<svg width="126" height="102" viewBox="0 0 126 102" fill="none" xmlns="http://www.w3.org/2000/svg">
<rect width="126" height="102" rx="15" fill="#5A8EA2"/>
<path fill-rule="evenodd" clip-rule="evenodd" d="M16.0094 50.7315C15.9969 50.7102 15.9969 50.6838 16.0094 50.6623L39.646 10.278C39.6583 10.257 39.6808 10.2441 39.7051 10.2441H86.554C86.5784 10.2441 86.601 10.2571 86.6133 10.2783L109.991 50.6627C110.003 50.6838 110.003 50.71 109.991 50.7312L86.6133 91.0702C86.601 91.0913 86.5784 91.1043 86.554 91.1043H39.7051C39.6808 91.1043 39.6583 91.0915 39.646 91.0706L16.0094 50.7315ZM84.7774 50.6742C84.7774 62.6974 75.0305 72.4442 63.0074 72.4442C50.9842 72.4442 41.2374 62.6974 41.2374 50.6742C41.2374 38.6509 50.9842 28.9042 63.0074 28.9042C75.0305 28.9042 84.7774 38.6509 84.7774 50.6742Z" fill="url(#paint0_linear_1423_20562)"/>
<defs>
<linearGradient id="paint0_linear_1423_20562" x1="6.59164" y1="16.3077" x2="63.0375" y2="119.067" gradientUnits="userSpaceOnUse">
<stop stop-color="white"/>
<stop offset="1" stop-color="white" stop-opacity="0"/>
</linearGradient>
</defs>
</svg>
